<svg width="822" height="737" viewBox="0 0 822 737" fill="none" xmlns="http://www.w3.org/2000/svg">
<path d="M812 168.9C812 173 810.7 176.5 808 179.1L665.1 322.1C662.4 324.8 659 326.1 654.9 326.1C651.1 326.1 647.7 324.7 644.9 321.9C642.1 319.1 640.7 315.7 640.7 311.9V226.2H526.3C512 226.2 499.1 228.5 487.4 232.9C475.8 237.4 465.5 244.1 456.6 253C447.7 261.9 440.1 271.1 433.9 280.4C427.6 289.8 420.9 301.3 413.8 315C404.3 333.5 392.7 358.9 379 391.3C370.4 410.9 363 427.5 356.9 440.9C350.8 454.3 342.7 469.9 332.8 487.8C322.9 505.7 313.3 520.6 304.3 532.4C295.2 544.3 284.2 556.6 271.2 569.5C258.2 582.3 244.8 592.5 231 600.1C217.2 607.7 201.3 613.9 183.5 618.9C165.7 623.8 146.6 626.2 126.3 626.2H26.3C22.2 626.2 18.7 624.9 16.1 622.2C13.4 619.6 12.1 616.2 12.1 612.1V526.4C12.1 522.3 13.4 518.8 16.1 516.2C18.8 513.5 22.2 512.2 26.3 512.2H126.3C140.6 512.2 153.5 509.9 165.2 505.5C176.8 501 187.1 494.3 196 485.4C204.9 476.5 212.5 467.3 218.7 458C225 448.6 231.7 437.1 238.8 423.4C248.3 405 259.9 379.5 273.6 347.1C282.2 327.5 289.6 310.9 295.7 297.5C301.8 284.1 309.9 268.5 319.8 250.6C329.8 232.8 339.3 217.8 348.3 206C357.4 194.1 368.4 181.8 381.4 168.9C394.4 156.1 407.8 145.9 421.6 138.3C435.4 130.7 451.3 124.5 469.1 119.5C486.9 114.6 506 112.2 526.3 112.2H640.6V26.4998C640.6 22.3998 641.9 18.8998 644.6 16.2998C647.3 13.5998 650.7 12.2998 654.8 12.2998C658.4 12.2998 661.9 13.7998 665.5 16.7998L808 158.9C810.7 161.3 812 164.8 812 168.9Z" fill="#6BCE81"/>
<path d="M248.2 334.1C248.2 334.1 291.5 239.6 309.3 212.2C261.7 145.2 200.6 111.7 126.4 111.8H26.4C22.3 111.8 18.9 113.1 16.2 115.8C13.5 118.4 12.2 121.9 12.2 126V211.7C12.2 215.8 13.5 219.2 16.2 221.9C18.8 224.6 22.3 225.9 26.4 225.9H126.3C139.4 225.9 151.5 228.1 162.7 232.4C173.9 236.7 183.3 241.9 190.9 248C198.4 254.1 206 262.6 213.6 273.3C221.2 284 227.2 293.5 231.7 301.7C236.2 310 241.6 320.7 248.2 334.1Z" fill="#DB5E5E"/>
<path d="M808 579.1C810.7 576.5 812 573 812 568.9C812 564.8 810.7 561.3 808 559L665.6 416.6C662 413.6 658.5 412.1 654.9 412.1C650.8 412.1 647.4 413.4 644.7 416.1C642 418.7 640.7 422.2 640.7 426.3V512H526.4C513.3 512 501.2 509.8 490 505.5C478.8 501.3 469.4 496 461.8 489.9C454.3 483.8 446.7 475.3 439.1 464.6C431.5 453.9 425.5 444.4 421 436.2C416.5 428 411.1 417.2 404.5 403.8C381.5 457.4 361.3 498 343.7 525.7C351.7 537.3 360.1 547.6 368.7 556.7C377.3 565.7 385.6 573.6 393.3 580.5C401.1 587.3 409.8 593.2 419.7 598.3C429.5 603.4 438.2 607.7 445.6 611.1C453.1 614.6 462.5 617.3 473.8 619.4C485 621.5 494.6 623.1 502.3 624.1C510.1 625.2 520.6 625.9 534 626.4C547.4 626.9 558.2 627.1 566.6 626.9C575 626.7 587 626.6 602.8 626.4C618.5 626.3 631.2 626.2 640.7 626.2V711.9C640.7 715.7 642.1 719.1 644.9 721.9C647.7 724.7 651.1 726.1 654.9 726.1C659 726.1 662.4 724.8 665.1 722.1L808 579.1Z" fill="#DB5E5E"/>
</svg>
